{
    "asset" : {
        "generator" : "Khronos glTF Blender I/O v1.6.16",
        "version" : "2.0"
    },
    "scene" : 0,
    "scenes" : [
        {
            "name" : "Scene",
            "nodes" : [
                0,
                1,
                2
            ]
        }
    ],
    "nodes" : [
        {
            "name" : "Light",
            "rotation" : [
                0.16907575726509094,
                0.7558803558349609,
                -0.27217137813568115,
                0.570947527885437
            ],
            "translation" : [
                4.076245307922363,
                5.903861999511719,
                -1.0054539442062378
            ]
        },
        {
            "name" : "Camera",
            "rotation" : [
                0.483536034822464,
                0.33687159419059753,
                -0.20870360732078552,
                0.7804827094078064
            ],
            "translation" : [
                7.358891487121582,
                4.958309173583984,
                6.925790786743164
            ]
        },
        {
            "mesh" : 0,
            "name" : "Mandible with nerve canal edited 6"
        }
    ],
    "meshes" : [
        {
            "name" : "Mandible with nerve canal edited 6",
            "primitives" : [
                {
                    "attributes" : {
                        "POSITION" : 0,
                        "NORMAL" : 1
                    },
                    "indices" : 2
                }
            ]
        }
    ],
    "accessors" : [
        {
            "bufferView" : 0,
            "componentType" : 5126,
            "count" : 77742,
            "max" : [
                58.547035217285156,
                24.903013229370117,
                72.07547760009766
            ],
            "min" : [
                -56.54536056518555,
                -63.435359954833984,
                -7.33655309677124
            ],
            "type" : "VEC3"
        },
        {
            "bufferView" : 1,
            "componentType" : 5126,
            "count" : 77742,
            "type" : "VEC3"
        },
        {
            "bufferView" : 2,
            "componentType" : 5125,
            "count" : 77742,
            "type" : "SCALAR"
        }
    ],
    "bufferViews" : [
        {
            "buffer" : 0,
            "byteLength" : 932904,
            "byteOffset" : 0
        },
        {
            "buffer" : 0,
            "byteLength" : 932904,
            "byteOffset" : 932904
        },
        {
            "buffer" : 0,
            "byteLength" : 310968,
            "byteOffset" : 1865808
        }
    ],
    "buffers" : [
        {
            "byteLength" : 2176776,
            "uri" : "model3.bin"
        }
    ]
}
